<?xml version="1.0" standalone="no"?>
<!DOCTYPE svg PUBLIC "-//W3C//DTD SVG 20010904//EN"
 "http://www.w3.org/TR/2001/REC-SVG-20010904/DTD/svg10.dtd">
<svg version="1.0" xmlns="http://www.w3.org/2000/svg"
 width="512.000000pt" height="512.000000pt" viewBox="0 0 512.000000 512.000000"
 preserveAspectRatio="xMidYMid meet">

<g transform="translate(0.000000,512.000000) scale(0.100000,-0.100000)"
fill="#000000" stroke="none">
<path d="M270 5104 c-112 -30 -200 -107 -242 -213 l-23 -56 0 -2275 0 -2275
24 -60 c32 -79 117 -164 198 -196 l58 -24 2275 0 2275 0 58 24 c81 32 166 117
198 196 l24 60 0 2275 0 2275 -24 60 c-32 79 -117 164 -198 196 l-58 24 -2255
2 c-1962 2 -2262 0 -2310 -13z m1691 -603 c201 -63 392 -264 548 -577 l58
-116 69 89 c94 120 242 265 350 342 234 167 443 219 598 148 100 -46 217 -176
285 -317 33 -69 36 -82 36 -165 0 -82 -3 -96 -33 -158 -23 -45 -57 -91 -103
-138 l-70 -69 356 0 c394 0 408 -2 445 -62 19 -31 20 -50 20 -361 0 -362 -1
-370 -63 -407 -22 -14 -50 -20 -89 -20 l-58 0 -2 -997 c-3 -1127 3 -1045 -81
-1084 -41 -18 -93 -19 -1682 -19 -1542 0 -1642 1 -1675 18 -19 9 -45 32 -57
51 l-23 34 0 997 0 998 -60 4 c-46 3 -66 10 -86 29 -53 50 -54 54 -54 394 0
341 0 344 55 395 l27 25 474 3 475 3 -73 57 c-173 138 -261 296 -262 472 -1
67 3 84 37 154 68 143 221 265 372 295 71 14 189 6 266 -18z"/>
<path d="M1690 4416 c-70 -20 -129 -54 -187 -108 -131 -125 -154 -259 -71
-428 60 -124 224 -262 451 -380 48 -25 87 -48 87 -52 0 -5 -287 -9 -637 -10
l-638 -3 0 -320 0 -320 828 -3 827 -2 0 345 0 345 210 0 210 0 0 -345 0 -345
823 2 822 3 0 320 0 320 -522 3 c-288 1 -523 6 -523 10 0 4 24 20 53 36 432
239 496 446 228 730 -82 86 -117 101 -226 101 -75 -1 -101 -6 -160 -30 -240
-98 -514 -352 -672 -621 -20 -35 -40 -64 -43 -64 -3 0 -33 67 -68 149 -212
502 -503 747 -792 667z m102 -297 c137 -54 292 -196 417 -384 64 -95 71 -110
55 -115 -73 -26 -273 90 -447 259 -127 122 -184 213 -157 246 17 21 70 19 132
-6z m1688 -134 c45 -54 -168 -223 -401 -319 -116 -48 -249 -66 -249 -34 0 18
156 165 233 219 89 62 191 115 260 134 71 19 141 19 157 0z"/>
<path d="M890 1702 c0 -755 3 -991 12 -1000 9 -9 185 -12 730 -12 l718 0 0
110 0 110 208 -2 207 -3 3 -107 3 -108 709 0 c691 0 710 0 720 19 7 13 10 343
10 1000 l0 981 -720 0 -720 0 0 -95 0 -95 -210 0 -210 0 0 95 0 95 -730 0
-730 0 0 -988z m3190 121 c0 -559 -2 -601 -19 -638 -23 -51 -65 -93 -116 -116
-38 -18 -105 -19 -1482 -19 l-1443 0 0 600 c0 663 -2 638 65 703 72 70 -33 65
1558 66 l1437 1 0 -597z"/>
<path d="M3524 2231 c-57 -26 -112 -84 -140 -148 -16 -36 -29 -53 -42 -53 -11
0 -27 -9 -37 -20 -18 -20 -17 -20 9 -20 15 0 29 -7 32 -15 7 -17 -20 -187 -42
-262 -10 -35 -23 -59 -40 -70 -24 -16 -28 -15 -60 2 -39 21 -41 20 -54 -24 -7
-27 -5 -36 12 -53 38 -38 128 -9 197 63 54 55 68 90 94 231 l22 123 35 5 c45
8 60 17 60 37 0 13 -8 14 -39 9 -22 -3 -42 -2 -45 3 -9 14 15 120 30 132 11 9
21 8 43 -1 24 -10 33 -9 55 5 27 18 41 48 31 65 -10 16 -76 11 -121 -9z"/>
<path d="M3164 2196 c-37 -16 -47 -37 -34 -71 8 -20 16 -25 44 -25 60 0 107
89 54 104 -29 7 -27 8 -64 -8z"/>
<path d="M3674 2173 c-16 -3 -20 -10 -16 -33 2 -15 -8 -79 -23 -142 -58 -248
-43 -318 69 -318 73 0 136 36 136 78 0 21 -3 23 -22 17 -95 -30 -116 -12 -98
86 19 105 22 109 80 109 37 0 55 5 70 20 37 37 26 46 -45 42 -36 -2 -65 -3
-65 -1 0 2 7 28 15 58 22 84 -1 104 -101 84z"/>
<path d="M1384 2143 c-12 -2 -28 -12 -36 -21 -23 -26 -148 -373 -148 -409 0
-38 25 -56 73 -51 27 2 35 10 52 45 l20 42 83 1 c70 0 83 -3 88 -17 17 -57 29
-68 74 -68 37 0 47 4 59 26 13 24 11 35 -33 155 -107 290 -103 282 -144 294
-38 10 -50 11 -88 3z m67 -200 c12 -38 24 -74 27 -80 3 -9 -10 -13 -47 -13
-32 0 -51 4 -51 12 0 12 42 148 46 148 1 0 12 -30 25 -67z"/>
<path d="M1730 2130 c-19 -19 -20 -33 -20 -228 0 -190 2 -210 18 -225 27 -25
78 -22 96 5 13 19 16 58 16 223 0 189 -1 203 -20 223 -26 27 -64 28 -90 2z"/>
<path d="M1985 2136 c-34 -15 -55 -52 -55 -95 0 -23 -6 -30 -26 -35 -20 -5
-25 -12 -22 -34 2 -16 12 -31 26 -37 21 -9 22 -15 22 -120 0 -130 11 -155 65
-155 58 0 65 16 65 151 l0 119 24 0 c41 0 56 11 56 40 0 30 -15 40 -57 40 -20
0 -24 4 -21 22 2 14 11 24 23 26 61 9 66 12 63 40 -5 48 -94 68 -163 38z"/>
<path d="M2771 2035 c-86 -27 -134 -104 -106 -170 7 -18 23 -36 36 -40 22 -7
22 -8 -6 -23 l-29 -15 22 -17 c29 -24 28 -26 -9 -34 -38 -7 -89 -60 -89 -91 0
-53 121 -105 207 -89 95 18 163 68 163 119 0 43 -29 66 -116 95 -64 22 -87 50
-41 50 35 1 101 35 125 64 11 15 24 40 27 57 5 20 16 34 33 40 50 19 57 53 9
44 -19 -4 -60 0 -94 9 -72 19 -75 19 -132 1z m107 -81 c7 -48 -111 -105 -146
-71 -36 36 37 100 108 95 27 -2 36 -8 38 -24z m-23 -274 c12 -10 13 -15 3 -28
-35 -41 -130 -55 -169 -23 -21 17 -22 21 -9 36 8 9 23 21 35 26 28 12 120 5
140 -11z"/>
<path d="M3165 2037 c-17 -7 -48 -23 -69 -36 l-38 -24 22 -17 23 -17 -22 -97
c-25 -115 -27 -164 -6 -172 28 -11 85 7 121 38 34 30 35 32 15 40 -33 12 -34
30 -11 132 22 95 24 157 5 162 -5 1 -24 -3 -40 -9z"/>
<path d="M2255 2006 c-85 -38 -129 -159 -91 -249 29 -69 121 -116 201 -102 48
8 70 8 110 0 24 -5 35 -2 50 15 17 19 20 40 23 149 5 165 -7 201 -67 201 -22
0 -43 -5 -46 -10 -4 -7 -12 -7 -25 0 -26 14 -119 12 -155 -4z m139 -98 c22
-31 21 -126 -1 -150 -34 -37 -96 -16 -109 38 -10 39 3 107 22 121 28 20 71 16
88 -9z"/>
<path d="M1328 1510 c-80 -24 -128 -85 -128 -164 l0 -46 1283 2 c1199 3 1284
4 1314 20 52 29 86 82 91 144 l4 54 -1268 -1 c-698 0 -1281 -4 -1296 -9z"/>
</g>
</svg>
